<?xml version="1.0" encoding="UTF-8"?>
<svg id="Capa_1" data-name="Capa 1" xmlns="http://www.w3.org/2000/svg" viewBox="0 0 138.23 117.59">
  <defs>
    <style>
      .cls-1 {
        fill: #e30613;
      }
    </style>
  </defs>
  <g id="MZIQLn.tif">
    <path class="cls-1" d="M69.8,108.07h-1.39c-12.37-7.1-24.27-15.2-34.88-24.75-9.55-8.61-20.89-21.28-23.37-34.28-.22-1.13-.17-2.43-.57-3.5.08-1.53-.11-3.13,0-4.65,1.62-22.14,23.99-36.7,44.99-29.53,5.55,1.9,10.69,5.5,14.44,9.99.29.05,2.38-2.44,2.88-2.9,15.6-14.41,40.6-10.84,51.71,7.11,16.01,25.86-9.32,50.99-28.35,65.76-8.03,6.23-16.61,11.73-25.45,16.75Z"/>
  </g>
</svg>