<?xml version="1.0" encoding="UTF-8"?>
<svg id="Capa_1" data-name="Capa 1" xmlns="http://www.w3.org/2000/svg" xmlns:xlink="http://www.w3.org/1999/xlink" viewBox="0 0 128.93 144.38">
  <defs>
    <style>
      .cls-1, .cls-2 {
        fill: none;
      }

      .cls-3 {
        fill: #3c3c3c;
      }

      .cls-4 {
        opacity: .28;
      }

      .cls-4, .cls-5 {
        fill: #088fc9;
      }

      .cls-6 {
        fill: #f4cebd;
      }

      .cls-2 {
        stroke: #3c3c3c;
        stroke-linecap: round;
        stroke-miterlimit: 10;
        stroke-width: 3px;
      }

      .cls-7 {
        fill: #bd830f;
      }

      .cls-8 {
        clip-path: url(#clippath-1);
      }

      .cls-9 {
        fill: #fff;
      }

      .cls-10 {
        fill: #f7f7f7;
      }

      .cls-11 {
        fill: #6d4a4a;
      }

      .cls-12 {
        clip-path: url(#clippath);
      }
    </style>
    <clipPath id="clippath">
      <rect class="cls-1" x="2.74" y="-224.89" width="112.92" height="109.72"/>
    </clipPath>
    <clipPath id="clippath-1">
      <rect class="cls-1" x="8" y="28.16" width="112.92" height="109.72"/>
    </clipPath>
  </defs>
  <g class="cls-12">
    <polygon class="cls-11" points="89.26 -43.93 89.26 -71.54 32.84 -74.51 30.57 -49.87 31.88 72.98 48.71 72.98 58.49 -44.64 63.46 -37.16 70.66 72.98 86.01 72.98 89.26 -43.93"/>
  </g>
  <g>
    <g class="cls-8">
      <polygon class="cls-7" points="87.01 77.98 76.33 74.9 64.25 73.13 42.8 75.88 42.8 95.4 87.01 95.4 87.01 77.98"/>
      <polygon class="cls-7" points="64.25 95.43 52.16 74.9 35.99 78.44 52.16 140.74 73.49 143.14 90.82 79.08 76.64 75.77 64.25 95.43"/>
      <path class="cls-10" d="M66.6,136.67l-14.44-41.79v-20.78l-31.85,4.99c-2.43.38-4.32,2.33-4.63,4.77l-5.51,37.04,4.06,70.34,13.68,8.27,1.56-64.59,2.93-22.22.23,102.29,65.89.28-.12-108.85,3.6,27,3.16,48.21,13.59-1.03-.06-57.14-4.04-35.49c-.22-2.35-1.91-4.3-4.2-4.85l-34.11-8.21v22.53l-9.74,39.24Z"/>
      <path class="cls-2" d="M66.41,136.13l-14.24-41.22s0-.04,0-.06v-20.55c0-.1-.09-.18-.2-.17l-31.65,4.96c-2.43.38-4.32,2.33-4.63,4.77l-5.51,37.02s0,.02,0,.03l4.06,70.23c0,.06.03.11.08.14l13.35,8.07c.11.07.25-.01.26-.14l1.56-64.29s0-.01,0-.02l2.6-19.7c.03-.21.34-.19.34.02l.22,99.59c0,.09.08.17.17.17l65.55.28c.09,0,.17-.08.17-.17l-.12-106.1c0-.21.31-.23.34-.02l3.25,24.44s0,0,0,.01l3.15,48.03c0,.09.09.16.18.16l13.27-1.01c.09,0,.16-.08.16-.17l-.06-56.98s0-.01,0-.02l-4.04-35.48c-.22-2.35-1.91-4.3-4.2-4.85l-33.9-8.16c-.11-.03-.21.06-.21.16v22.29s0,.03,0,.04l-9.59,38.66c-.04.16-.27.17-.32.01Z"/>
      <path class="cls-5" d="M43.12,112.24h-2.97v-23.31c0-12.7,10.41-23.03,23.22-23.03s23.21,10.33,23.21,23.03v12.85h-2.97v-12.85c0-11.06-9.08-20.06-20.25-20.06s-20.25,9-20.25,20.06v23.31Z"/>
      <path class="cls-9" d="M35.68,115.36c0,3.11,2.52,5.63,5.63,5.63s5.63-2.52,5.63-5.63-2.52-5.63-5.63-5.63-5.63,2.52-5.63,5.63Z"/>
      <path class="cls-5" d="M41.31,122.48c-3.92,0-7.11-3.19-7.11-7.11s3.19-7.11,7.11-7.11,7.11,3.19,7.11,7.11-3.19,7.11-7.11,7.11ZM41.31,111.22c-2.28,0-4.14,1.86-4.14,4.14s1.86,4.14,4.14,4.14,4.14-1.86,4.14-4.14-1.86-4.14-4.14-4.14Z"/>
      <path class="cls-5" d="M87.83,131.06v-2.97c1.46,0,2.82-.65,3.74-1.78.92-1.13,1.27-2.59.98-4.02l-3.42-16.38c-.4-1.9-2.09-3.27-4.02-3.27s-3.63,1.37-4.02,3.27l-3.42,16.38c-.3,1.43.06,2.89.98,4.02.92,1.13,2.28,1.78,3.73,1.78v2.97c-2.35,0-4.55-1.05-6.04-2.87-1.48-1.83-2.06-4.2-1.58-6.5l3.42-16.38c.68-3.26,3.6-5.63,6.93-5.63s6.25,2.37,6.93,5.63l3.42,16.38c.48,2.3-.09,4.67-1.58,6.5-1.48,1.83-3.69,2.88-6.04,2.88Z"/>
      <path class="cls-5" d="M88.38,127.21h1.33v4.73h-1.33c-1.26,0-2.29-1.03-2.29-2.29v-.15c0-1.26,1.03-2.29,2.29-2.29Z"/>
      <path class="cls-5" d="M82.77,127.21h1.33v4.73h-1.33c-1.26,0-2.29-1.03-2.29-2.29v-.15c0-1.26,1.03-2.29,2.29-2.29Z" transform="translate(164.58 259.15) rotate(180)"/>
      <path class="cls-7" d="M52.16,74.4c0,6.15,24.17,6.15,24.17,0v-15.94h-24.17v15.94Z"/>
      <path class="cls-6" d="M52.16,70.16c0,6.15,24.17,6.15,24.17,0v-15.94h-24.17v15.94Z"/>
    </g>
    <g>
      <path class="cls-6" d="M89.77,36.83s-.06,0-.09,0c0,0-.02,0-.03,0-.01-.01-.03-.02-.04-.03-1.66-.64-3.19-1.85-4.56-3.6-.74-.94-1.27-1.82-1.62-2.7-.03-.08-.06-.15-.08-.23l-.05-.14c-.02-.06-.08-.1-.15-.1h0c-13.82.15-24.83-1.75-33.55-11.55-.04-.04-.09-.06-.14-.05-.05,0-.1.05-.12.09-.68,1.67-1.09,3.36-1.48,4.98-.39,1.61-.8,3.28-1.47,4.94-1.95,4.82-4.42,7.18-7.75,7.42-.02,0-.04,0-.06.02-3.31.3-5.81,3.01-5.81,6.33,0,3.52,2.86,6.39,6.39,6.39.23,0,.45-.03.67-.06h.02c1.02,4.24,2.54,7.91,4.41,10.6.97,1.4,4.28,4.19,7.87,6.64.99.68,1.99,1.32,2.97,1.9.04.02.56-.32.63-.26,1.38,1.01,2.94,2.16,4.63,2.92,1.2.55,2.33.84,3.45.9.01,0,.02,0,.03,0,.03,0,.05,0,.08,0,.02,0,.04,0,.06,0,.07,0,.13,0,.19,0,2.24,0,4.26-1.04,6.2-2.05.49-.25.97-.5,1.45-.73.22-.1.37.06.41.11.05.06.13.08.2.04.37-.19.74-.39,1.11-.6,5.12-2.88,10.13-7,11.4-9.39,1.3-2.44,2.43-5.63,3.28-9.24.57.15,1.07.22,1.56.22,3.52,0,6.39-2.86,6.39-6.39s-2.86-6.39-6.39-6.39Z"/>
      <path class="cls-2" d="M89.77,36.83s-.06,0-.09,0c0,0-.02,0-.03,0-.01-.01-.03-.02-.04-.03-1.66-.64-3.19-1.85-4.56-3.6-.74-.94-1.27-1.82-1.62-2.7-.03-.08-.06-.15-.08-.23l-.05-.14c-.02-.06-.08-.1-.15-.1h0c-13.82.15-24.83-1.75-33.55-11.55-.04-.04-.09-.06-.14-.05-.05,0-.1.05-.12.09-.68,1.67-1.09,3.36-1.48,4.98-.39,1.61-.8,3.28-1.47,4.94-1.95,4.82-4.42,7.18-7.75,7.42-.02,0-.04,0-.06.02-3.31.3-5.81,3.01-5.81,6.33,0,3.52,2.86,6.39,6.39,6.39.23,0,.45-.03.67-.06h.02c1.02,4.24,2.54,7.91,4.41,10.6.97,1.4,4.28,4.19,7.87,6.64.99.68,1.99,1.32,2.97,1.9.04.02,4.11,2.87,9.12,2.87,5.43,0,8.95-2.33,9.32-2.54,5.12-2.88,10.13-7,11.4-9.39,1.3-2.44,2.43-5.63,3.28-9.24.57.15,1.07.22,1.56.22,3.52,0,6.39-2.86,6.39-6.39s-2.86-6.39-6.39-6.39Z"/>
      <path class="cls-3" d="M88.73,16.97c-3.91-9.25-13.12-13.56-28.13-13.13-9.44.26-16.37,4.01-20.58,11.15-1.37,2.33-1.81,5.12-2.08,7.79-.42,4.22-.03,13.19-.03,13.28,0,.08.07.15.16.15.19,0,.36-.01.54-.03h.04c3.47-.25,6.02-2.67,8.02-7.61.68-1.67,1.09-3.35,1.48-4.98.37-1.54.76-3.13,1.38-4.71,8.75,9.7,19.72,11.61,33.51,11.47v.03c.04.08.07.17.1.25.36.91.91,1.82,1.66,2.78,1.41,1.79,2.99,3.03,4.72,3.7.01,0,.03.02.05.02,0,0,.02,0,.03,0,0,0,0,0,0,0,.01,0,.02,0,.03,0,.03,0,.05,0,.08-.02.05-.02.08-.08.09-.13.04-.41.38-4.11.32-6.94,0-.01,0-.02,0-.04.33-3.95.52-8.53-1.39-13.05Z"/>
      <rect class="cls-4" x="40.59" y="129.51" width="15.96" height="2.51" rx=".52" ry=".52"/>
      <path class="cls-3" d="M9.61,137.88h110.67v2.11c0,.32-.26.58-.58.58H10.19c-.32,0-.58-.26-.58-.58v-2.11h0Z"/>
    </g>
  </g>
</svg>