<?xml version="1.0" encoding="UTF-8"?>
<svg id="Capa_1" data-name="Capa 1" xmlns="http://www.w3.org/2000/svg" viewBox="0 0 118.43 146.2">
  <defs>
    <style>
      .cls-1 {
        fill: #3c3c3c;
      }

      .cls-2 {
        fill: #ffbaac;
      }

      .cls-3 {
        fill: #088fc9;
      }

      .cls-4 {
        fill: #ffcfbf;
      }

      .cls-5 {
        fill: #74ccf2;
      }
    </style>
  </defs>
  <g id="BwDAyB.tif">
    <g>
      <path class="cls-1" d="M61.79,6.67c2,.13,7.8,1.03,7.8,1.03,8.57,2.13,17.54,7.58,18.33,17.29.33,4.07-.58,9.42.02,13.25.18,1.13,1.72,3.61,2.2,5.09,2.23,7.01,1.6,14.91-.15,21.97-1.03,4.14-5.36,12.34.65,14.47,1.05.37,2.63.31,3.46.7,2.37,1.09-1.25,6.6-2.4,7.88-1.98,2.19-4.54,3.28-6.89,4.94,3.19,1.05,6.53,2.19,9.61,3.52,3.97,1.71,9.35,4.18,9.88,9.1.69,6.38-.09,14.93,0,21.6,0,.44-.17,1.16.26,1.43,0,.09,0,.17,0,.26,0,.03-.26.28-.27.63-.07,2.42.4,6.46,0,8.6-.1.56-.62,1.07-1.17,1.17l-87.84.02-1.36-.98-.07-32.48c.69-7.56,12.98-10.22,18.72-12.61-1.78-1.35-3.84-2.2-5.58-3.65-1.78-1.48-3.54-3.61-4.34-5.8-1.64-4.5.46-3.33,3.37-4.27,6.3-2.04,2.27-9.54,1.17-13.81-2.07-8.07-2.6-16.59.32-24.51.35-.94,1.26-2.09,1.41-3.01.78-5-.5-11.51.72-16.45,2.52-10.19,15.7-15.01,25.13-15.43,0,0,5.3-.07,7.02.05ZM84.8,34.22v-9.5c0-.68-.69-2.69-.99-3.43-6.3-15.62-43.99-15.66-50.5-.26-1.43,3.39-.86,5.92-.98,9.42-.04,1.21-.6,2.53-.14,3.76,1.76-1.62,3.73-3.17,5.84-4.3,9.86-5.23,26.66-5.47,37.04-1.69,3.63,1.32,6.93,3.35,9.74,5.99ZM64.79,41.76c-6.38,4.73-14.36,5.05-20.53,10.27-.78.66-4.2,4.03-4.36,4.74-1.48,6.56,5.03,18.03,10.36,21.78,13.38,9.39,26.26-8.35,26.22-20.79,0-.35-.31-2.84-.39-3-.14-.29-3.66-2.92-4.29-3.51-2.79-2.59-5.86-5.8-7.02-9.5ZM49.98,82.09c-.53,4.43-2.94,7.44-.83,11.88,4.6,9.69,21.13,6.26,20.86-3.95-.07-2.52-2.04-6.33-2.36-8.97-5.2,3.94-12.04,4.49-17.66,1.04ZM45.3,91.98l-8.57,3.25,19.65,17.54,28.42-16.24-11.95-4.55c-2.66,14.63-24.88,14.6-27.55,0ZM45.82,136.47v-16.78c0-.3.52-1.03.79-1.29,1.28-1.23,4.71-2.4,6.32-3.56.22-.16.51-.25.42-.6l-20-17.7c-3.89,1.6-8.17,2.73-11.87,4.76-1.31.72-4.5,2.98-4.5,4.6v21.72h9.61c-.03-1.07-.27-2.4,1.04-2.76.81-.23,2.08.7,2.08,1.33v10.28h16.11ZM101.17,127.62v-21.72c0-1.53-2.62-3.52-3.82-4.24s-7.95-3.79-8.92-3.58l-39.49,22.65v15.74h39.5v-10.28c0-.62,1.27-1.55,2.08-1.33,1.3.36,1.06,1.69,1.04,2.76h9.61ZM26.59,130.74h-9.61v5.72h9.61v-5.72ZM101.17,130.74h-9.61v5.72h9.61v-5.72Z"/>
      <path class="cls-3" d="M101.17,127.62h-9.61c.03-1.07.27-2.4-1.04-2.76-.81-.23-2.08.7-2.08,1.33v10.28h-39.5v-15.74l39.49-22.65c.97-.21,7.73,2.86,8.92,3.58s3.82,2.71,3.82,4.24v21.72ZM79.28,111.81c-1.88.34-2.09,2.41-.32,3.05h12.2c1.54-.3,1.38-2.8-.53-3.1-1.76-.27-9.64-.27-11.35.05ZM52.91,126.51c.75.72,6.11.9,4.9-1.9-.63-1.46-5.26-1.4-5.43.57-.02.24.37,1.17.53,1.32ZM53.8,130.8c-1.44.32-1.91,2.34-.71,2.94.84.42,4.27.4,4.75-.73.94-2.23-2.54-2.55-4.04-2.21Z"/>
      <path class="cls-4" d="M64.79,41.76c1.16,3.7,4.22,6.91,7.02,9.5.63.59,4.15,3.21,4.29,3.51.07.15.39,2.65.39,3,.04,12.44-12.84,30.18-26.22,20.79-5.34-3.74-11.84-15.22-10.36-21.78.16-.72,3.58-4.08,4.36-4.74,6.17-5.22,14.15-5.55,20.53-10.27Z"/>
      <path class="cls-3" d="M45.82,136.47h-16.11v-10.28c0-.62-1.27-1.55-2.08-1.33-1.3.36-1.06,1.69-1.04,2.76h-9.61v-21.72c0-1.62,3.2-3.88,4.5-4.6,3.7-2.03,7.98-3.16,11.87-4.76l20,17.7c.09.34-.19.43-.42.6-1.61,1.16-5.04,2.33-6.32,3.56-.27.26-.79.99-.79,1.29v16.78ZM27.3,111.81c-1.66.37-1.81,2.77-.31,3.06h12.2c1.89-.77,1.52-2.8-.54-3.09-1.65-.23-9.89-.29-11.35.03Z"/>
      <path class="cls-3" d="M84.8,34.22c-2.81-2.64-6.11-4.66-9.74-5.99-10.38-3.78-27.18-3.54-37.04,1.69-2.12,1.12-4.08,2.68-5.84,4.3-.46-1.24.1-2.55.14-3.76.13-3.51-.45-6.04.98-9.42,6.52-15.4,44.21-15.36,50.5.26.3.74.99,2.75.99,3.43v9.5ZM60.11,16.01c.02-2.02.48-4.72-2.42-4.12-1.09.38-.58,3.18-.69,4.12-1.21.08-3.82-.42-4.31,1.02-.89,2.64,2.71,2.1,4.31,2.09-1,6.09,4.05,5.94,3.12,0,1.49-.15,4.29.73,4.35-1.48.06-1.95-3.06-1.71-4.35-1.64Z"/>
      <path class="cls-5" d="M45.3,91.98c2.66,14.6,24.89,14.63,27.55,0l11.95,4.55-28.42,16.24-19.65-17.54,8.57-3.25Z"/>
      <path class="cls-2" d="M49.98,82.09c5.63,3.45,12.46,2.9,17.66-1.04.32,2.65,2.3,6.45,2.36,8.97.27,10.21-16.26,13.64-20.86,3.95-2.11-4.44.3-7.45.83-11.88Z"/>
      <rect class="cls-4" x="16.98" y="130.74" width="9.61" height="5.72"/>
      <rect class="cls-4" x="91.56" y="130.74" width="9.61" height="5.72"/>
      <path class="cls-1" d="M79.28,111.81c1.71-.31,9.59-.32,11.35-.05,1.91.3,2.07,2.8.53,3.1h-12.2c-1.78-.64-1.56-2.71.32-3.05Z"/>
      <path class="cls-1" d="M52.91,126.51c-.17-.16-.55-1.08-.53-1.32.17-1.97,4.8-2.03,5.43-.57,1.2,2.79-4.15,2.62-4.9,1.9Z"/>
      <path class="cls-1" d="M53.8,130.8c1.5-.34,4.98-.02,4.04,2.21-.48,1.13-3.9,1.15-4.75.73-1.2-.6-.73-2.62.71-2.94Z"/>
      <path class="cls-1" d="M27.3,111.81c1.46-.32,9.7-.27,11.35-.03,2.06.29,2.43,2.33.54,3.09h-12.2c-1.5-.29-1.35-2.69.31-3.06Z"/>
      <path class="cls-1" d="M60.11,16.01c1.29-.07,4.41-.31,4.35,1.64-.07,2.2-2.86,1.32-4.35,1.48.93,5.94-4.12,6.09-3.12,0-1.6,0-5.2.55-4.31-2.09.49-1.45,3.09-.94,4.31-1.02.11-.94-.4-3.74.69-4.12,2.9-.6,2.45,2.1,2.42,4.12Z"/>
    </g>
  </g>
</svg>