<?xml version="1.0" encoding="UTF-8"?>
<svg id="Capa_1" data-name="Capa 1" xmlns="http://www.w3.org/2000/svg" viewBox="0 0 115.37 275.25">
  <defs>
    <style>
      .cls-1 {
        fill: #088fc9;
      }

      .cls-2 {
        opacity: .1;
      }

      .cls-2, .cls-3, .cls-4 {
        fill: #fff;
      }

      .cls-5 {
        fill: #bd830f;
      }

      .cls-6 {
        stroke-width: 4px;
      }

      .cls-6, .cls-7 {
        fill: none;
        stroke: #091630;
        stroke-miterlimit: 10;
      }

      .cls-6, .cls-7, .cls-4, .cls-8 {
        fill-rule: evenodd;
      }

      .cls-9 {
        fill: #d0e9e2;
      }

      .cls-10 {
        fill: #06213a;
      }

      .cls-7 {
        stroke-width: 3px;
      }

      .cls-4 {
        opacity: .33;
      }

      .cls-8, .cls-11 {
        fill: #091630;
      }
    </style>
  </defs>
  <path class="cls-7" d="M61,58.07c-10.01,31.71,0,45.76,0,45.76"/>
  <g>
    <g>
      <path class="cls-11" d="M66.24,101.29c-.28-.83-.65-1.72-1.42-2.14-.65-.36-1.44-.31-2.18-.22-2.58.33-5.1,1.09-7.43,2.25-.47.23-.96.51-1.23.97-.32.56-.22,1.26-.09,1.89.25,1.18.58,2.35,1,3.48.14.38.3.77.62,1.01.77.59,1.85-.02,2.66-.56,1.99-1.33,4.18-2.23,6.5-2.8,2.6-.64,2.41-1.4,1.56-3.88Z"/>
      <g>
        <g>
          <path class="cls-3" d="M61.67,102.85c5.67-1.13,11.16,2.4,12.5,8.02,1.37,5.74-2.19,11.53-7.94,12.89-.13.03-.27.06-.4.09-5.67,1.13-11.16-2.4-12.5-8.02-1.37-5.74,2.19-11.53,7.94-12.89.13-.03.27-.06.4-.09Z"/>
          <path class="cls-11" d="M65.63,122.78c-5.05,1-10.02-2.16-11.22-7.2-1.23-5.17,1.96-10.35,7.13-11.58.12-.03.24-.05.36-.08,5.05-1,10.02,2.16,11.22,7.2,1.23,5.17-1.96,10.35-7.13,11.58-.12.03-.24.05-.36.08M66.05,124.93h0c.15-.03.29-.06.44-.1,6.33-1.51,10.25-7.88,8.74-14.21-.71-2.99-2.53-5.55-5.12-7.2-2.58-1.65-5.66-2.23-8.66-1.64-.15.03-.29.06-.44.1-6.33,1.51-10.25,7.88-8.74,14.21.71,2.99,2.53,5.55,5.12,7.2,2.58,1.65,5.65,2.23,8.66,1.64h0Z"/>
        </g>
        <g>
          <path class="cls-5" d="M58.99,116.37c-.92-1.68-.94-3.69-.04-5.39l-2.28-1.2c-1.31,2.47-1.29,5.4.05,7.84l2.26-1.25Z"/>
          <path class="cls-9" d="M71.19,109.64c-1.06-1.92-2.81-3.32-4.93-3.93-2.12-.61-4.34-.36-6.27.71-1.41.78-2.56,1.94-3.31,3.36l2.28,1.2c.52-.97,1.3-1.77,2.27-2.31,1.33-.73,2.86-.9,4.31-.49,1.45.42,2.66,1.38,3.39,2.7l2.26-1.25Z"/>
        </g>
        <g>
          <polygon class="cls-5" points="65.42 117.7 63.07 108.35 63.25 117.98 65.42 117.7 65.42 117.7"/>
          <path class="cls-5" d="M62.45,114.97c-.2.86.33,1.72,1.18,1.92.86.2,1.72-.33,1.92-1.18.2-.86-.33-1.72-1.18-1.92-.86-.2-1.72.33-1.92,1.18Z"/>
        </g>
      </g>
    </g>
    <path class="cls-2" d="M64.07,113.92c.29,0,.66-.49.45-.68-.38-.35-1.05.69-.45.68Z"/>
  </g>
  <path class="cls-6" d="M47.13,83.15c-10.01,31.71,0,45.76,0,45.76"/>
  <g>
    <g>
      <path class="cls-8" d="M46.76,129.2c-6.43,2.56-8.65,12.25-4.94,21.57,3.71,9.32,11.98,14.83,18.41,12.27,6.43-2.56,8.65-12.25,4.94-21.57-3.71-9.32-11.98-14.83-18.41-12.27Z"/>
      <rect class="cls-11" x="42.66" y="125.9" width="7.83" height="5.68" rx="1.85" ry="1.85" transform="translate(-44.31 26.35) rotate(-21.7)"/>
    </g>
    <path class="cls-4" d="M53.98,134.56c-.64-.28-.94-1.04-.65-1.68.28-.64,1.04-.94,1.68-.65,2.69,1.19,5.4,4.73,7.19,8.83,1.69,3.88,2.6,8.32,1.91,11.78-.14.69-.81,1.14-1.5,1-.69-.14-1.14-.81-1-1.5.58-2.92-.24-6.81-1.75-10.26-1.55-3.57-3.78-6.59-5.88-7.52Z"/>
  </g>
  <g id="eiP0AS.tif">
    <path class="cls-10" d="M22.49,191.32l7.62-4.39L30.69,3.33h5.6s-.33,187.33-.33,187.33c-6.3,2.96-16.39,9.42-20.29,14.1-1.42,1.71-3.06,5.54-3.54,8.16-1.56,8.46-.75,17.25.21,26.07.73,6.51,6.86,4.73,11.54,5.29,2.95.36,6.76,1.1,9.47,2.27,2.75,1.19,7,5.74,7.55-.57.45-5.21-6.37-10.56-10.67-12.36-1.84-.77-4.72-.47-5.28-2.95-.33-1.49-.09-2.82,1.11-3.82,1.82-1.5,5.89-2.84,8.33-4.59,5.43-3.88,9.29-9.59,11.63-15.78.89-2.35.81-6.81,4.1-6.81,5.29,0,1.62,8.41.53,11.05-3.2,7.73-8.94,14.07-15.99,18.47l6.85,5.28c1.8-9.36,12.59-14.15,19.18-6.26,1.44-.75,2.32-2.06,3.84-2.82,4.65-2.3,9.73-1.07,13.04,2.78,1.34-.67,2.15-1.91,3.54-2.64,3.73-1.97,6.89-1.33,10.69-.07.37-13.35-3.49-27.06-12.4-37.13V3.4h5.59l-.17,181.84c.1.61,3.84,5.61,4.56,6.82,5.03,8.48,7.8,18.24,8.31,28.11.63,12.3.84,29.75,0,41.94-.26,3.82-1.57,7.22-5.29,8.8-3.44,1.47-11.68,1.53-14.49-1.48-3.25,2.58-8.5,2.76-12.5,2.22-1.59-.22-3.71-1.89-4.34-1.91-.84-.03-1.71,1.04-2.55,1.35-2.52.93-9.21.93-11.74,0-.84-.31-1.71-1.38-2.55-1.35-.63.02-2.75,1.7-4.34,1.91-5.12.7-12.1.4-14.45-5.06-.21-.49-.98-3-.98-3.33v-13.12c-8.22.29-16.93-.54-17.96-10.43-.48-4.58-.69-10.86-.83-15.42-.08-2.72-.24-6.37,0-9.01.18-1.93,1.08-5.6,1.68-7.53.83-2.65,2.69-5.74,3.91-7.21,4.14-5.03,11.22-9.23,11.22-9.23ZM34.92,254.39c-1.51-.73-2.71-2.53-4.57-2.28v10.77c0,.12.82,1.95.99,2.14,1.31,1.51,9.97,1.12,9.97-.97v-9.2c-2.31.7-4.22.58-6.39-.46ZM58.12,263.25c-.66-8.52.99-18.63-.02-26.96-.99-8.17-9.88-8.16-10.87,0-1,8.24.66,18.18-.05,26.6.03,1.3.95,2.56,2.25,2.85,2.24.5,8.49.77,8.7-2.49ZM74.99,261.72c.4-4.8.61-23.36-.6-27.24-1.99-6.41-9.22-5.33-10.35,1.01l-.02,28.16c.47,3.11,8.9,2.63,10.05,1.27.56-.66.84-2.3.92-3.2ZM80.85,236.24l.08,27.33c.51,2.89,6.51,2.63,8.64,2.15,1.41-.32,2.09-1.92,2.25-3.24.61-5.1.61-21.14-.11-26.15-.62-4.3-4.92-8.74-8.77-4.87-.93.93-1.94,3.43-2.09,4.76Z"/>
  </g>
  <rect class="cls-10" x="17.51" y="52.96" width="81.85" height="31.42" rx="3.62" ry="3.62"/>
  <rect class="cls-1" x="7.07" y="15.01" width="102.73" height="53.66" rx="3.94" ry="3.94"/>
</svg>