<?xml version="1.0" encoding="utf-8"?>
<!-- Generator: $$$/GeneralStr/196=Adobe Illustrator 27.6.0, SVG Export Plug-In . SVG Version: 6.00 Build 0)  -->
<svg version="1.1" xmlns="http://www.w3.org/2000/svg" xmlns:xlink="http://www.w3.org/1999/xlink" x="0px" y="0px"
	 viewBox="0 0 1080 1080" style="enable-background:new 0 0 1080 1080;" xml:space="preserve">
<style type="text/css">
	
		.st0{clip-path:url(#SVGID_00000010305899508530860510000001768113223675666344_);fill:url(#SVGID_00000083786555115627084370000007360330061184346030_);}
	
		.st1{clip-path:url(#SVGID_00000031899174446940569890000014598622794339510710_);fill:url(#SVGID_00000015340378601728211470000000345326756356737456_);}
	
		.st2{clip-path:url(#SVGID_00000148623652665614103240000012204015806836345999_);fill:url(#SVGID_00000109710867886490447870000005189919653462573956_);}
</style>
<g id="Capa_22">
	<g>
		<defs>
			<path id="SVGID_1_" d="M634.48,439.42c33.12,8.59,89.28,48.02,103.54,71.69c-27.89,32.42-62.12,55.81-104.53,72.01
				C666.07,534.25,665.85,486.99,634.48,439.42 M343.91,509.84c27.98-32.2,62.59-55.11,105.03-71.98
				c-32.23,49.09-32.33,96.03-1.65,142.94C419.84,577.38,356.71,531.8,343.91,509.84 M540.72,599.92
				c-44.59-0.26-88.87-35.75-88.78-89.44c0.13-55.84,46.91-89.13,89.03-89.25c47.57-0.16,90.58,40.35,89,88.9
				c2.12,47.93-39.65,89.79-88.7,89.79C541.09,599.92,540.91,599.92,540.72,599.92 M494.01,397.96
				c-70.71,10.87-129.69,44.94-176.19,99.87c-8.59,10.14-9,15.78-0.19,25.39c9.86,10.75,19.65,21.8,30.74,31.15
				c80.72,67.98,172.32,88.14,274.28,61.08c8.88-2.34,17.53-5.51,26.28-8.3c0.22,0.57,0.48,1.14,0.7,1.71
				c-9.92,9.57-19.93,19.05-29.76,28.68c-27.7,27.16-58,50.81-92.51,68.78c-33.31,17.34-67.83,28.37-106.3,22.76
				c-20.92-3.04-39.05-10.9-53.98-25.51c-7.23-7.1-14.67-14.58-17.91-25.1c4.72-1.14,8.72-1.87,12.52-3.1
				c14.11-4.66,23.36-17.15,23.93-31.95c0.57-15.62-7.61-28.59-21.9-34.71c-12.14-5.2-29.35-2.25-38.48,7.45
				c-10.52,11.16-14.96,24.66-13.76,40.09c3.01,37.68,43.07,82.78,80.91,94.35c28.46,8.72,57.37,10.05,86.53,3.42
				c44.12-10.05,81.9-32.71,117.46-59.49c26.3-19.84,49.38-43.36,72.58-66.69c2.15-2.18,4.72-3.93,8.08-6.72
				c0.51,43.67,1.01,85.8,1.55,127.89c0,0.32,0.48,0.63,1.27,1.58h5.58c18.57-32.07,36.73-63.48,54.93-94.92
				c-5.8-2.91-5.8-2.91-10.55-3.01c-16.17-0.32-25.26-7.48-27.54-23.26c-1.62-11.16-1.71-22.53-2.38-32.68
				c2.92-3.48,4.66-5.7,6.56-7.83c19.18-21.52,38.41-42.98,57.52-64.53c9.64-10.9,9.76-16.67-0.03-27.45
				c-8.18-9-16.42-18.03-25.45-26.12c-57.07-51.15-122.25-76.76-194.45-76.76C527.72,394.03,511.04,395.34,494.01,397.96"/>
		</defs>
		<clipPath id="SVGID_00000062157217253168194270000007786708595048429224_">
			<use xlink:href="#SVGID_1_"  style="overflow:visible;"/>
		</clipPath>
		
			<linearGradient id="SVGID_00000037669516739929338700000017212970020320790433_" gradientUnits="userSpaceOnUse" x1="-851.1017" y1="-463.0671" x2="-848.8584" y2="-463.0671" gradientTransform="matrix(-228.2811 233.3167 233.3167 228.2811 -85461.0312 304610.75)">
			<stop  offset="0" style="stop-color:#CF9112"/>
			<stop  offset="1" style="stop-color:#D19F49"/>
		</linearGradient>
		
			<polygon style="clip-path:url(#SVGID_00000062157217253168194270000007786708595048429224_);fill:url(#SVGID_00000037669516739929338700000017212970020320790433_);" points="
			957,573.34 546.35,993.04 125.56,581.33 536.21,161.63 		"/>
	</g>
	<g>
		<defs>
			<path id="SVGID_00000096053852273749151590000014195067105644185231_" d="M483.1,320.48c-32.46,5.96-63.43,16.7-94.09,28.53
				c-34.41,13.27-68.68,26.91-103.32,39.55c-15.17,5.54-31.13,8.92-46.68,13.46c-2.53,0.74-4.81,2.37-7.77,3.88
				c1.31,3.18,2.32,5.6,3.44,8.32c17.7,0.43,34.38-3.08,51.06-6.1c29.97-5.43,58.95-14.67,87.88-23.99
				c36.98-11.92,73.63-24.88,112.14-31.55c41.73-7.22,83.15-6.2,124.5,2.39c34.62,7.19,67.83,19.14,101.35,30.01
				c33.56,10.89,67.38,20.75,102.31,26.18c11.1,1.73,22.35,2.46,34.83,3.79v-10.24c-26.62-8.51-52.28-15.96-77.4-24.94
				c-25.57-9.14-50.6-19.78-75.85-29.79c-31.7-12.56-63.82-23.62-97.51-29.71c-18.94-3.43-37.86-5.13-56.77-5.13
				C521.86,315.13,502.48,316.92,483.1,320.48"/>
		</defs>
		<clipPath id="SVGID_00000074423448175159620360000010587878454642654627_">
			<use xlink:href="#SVGID_00000096053852273749151590000014195067105644185231_"  style="overflow:visible;"/>
		</clipPath>
		
			<linearGradient id="SVGID_00000007404637374478609230000013590089072416806279_" gradientUnits="userSpaceOnUse" x1="-851.1017" y1="-463.3586" x2="-848.8584" y2="-463.3586" gradientTransform="matrix(-228.2811 233.3167 233.3167 228.2811 -85499.7969 304572.8125)">
			<stop  offset="0" style="stop-color:#CF9112"/>
			<stop  offset="1" style="stop-color:#D19F49"/>
		</linearGradient>
		
			<polygon style="clip-path:url(#SVGID_00000074423448175159620360000010587878454642654627_);fill:url(#SVGID_00000007404637374478609230000013590089072416806279_);" points="
			898.65,363.95 546.74,723.62 181.35,366.13 533.26,6.45 		"/>
	</g>
	<g>
		<defs>
			<path id="SVGID_00000095306553691714123990000013049958513386785705_" d="M528.59,508.51c0-6.66,5.39-12.05,12.04-12.05
				c6.66,0,12.04,5.39,12.04,12.05s-5.39,12.04-12.04,12.04C533.97,520.55,528.59,515.17,528.59,508.51 M546.56,478.21
				c-0.35-9.57,7.61-17.88,17.4-18.13c9.79-0.26,18.29,7.48,18.67,16.95c0.35,9.48-7.77,17.97-17.43,18.22
				c-0.15,0-0.3,0.01-0.45,0.01C555.32,495.27,546.93,487.45,546.56,478.21 M543.16,445.53c-36.13,0.1-64.81,28.81-65.16,64.78
				c-0.35,34.32,28.37,65.73,65.73,65.58c28.24-0.13,65.38-20.86,64.97-66.24c-0.34-40.17-32.31-64.14-63.72-64.14
				C544.38,445.51,543.77,445.51,543.16,445.53"/>
		</defs>
		<clipPath id="SVGID_00000062156199568047329950000017580052613275326117_">
			<use xlink:href="#SVGID_00000095306553691714123990000013049958513386785705_"  style="overflow:visible;"/>
		</clipPath>
		
			<linearGradient id="SVGID_00000113335637982652929110000016514695806031926172_" gradientUnits="userSpaceOnUse" x1="-851.1017" y1="-463.1382" x2="-848.8584" y2="-463.1382" gradientTransform="matrix(-228.2811 233.3167 233.3167 228.2811 -85476.625 304595.5)">
			<stop  offset="0" style="stop-color:#CF9112"/>
			<stop  offset="1" style="stop-color:#D19F49"/>
		</linearGradient>
		
			<polygon style="clip-path:url(#SVGID_00000062156199568047329950000017580052613275326117_);fill:url(#SVGID_00000113335637982652929110000016514695806031926172_);" points="
			674.38,509.35 544.82,641.77 412.39,512.2 541.95,379.79 		"/>
	</g>
</g>
<g id="SOMBRA">
</g>
<g id="CORBATA">
</g>
<g id="TORSO">
</g>
<g id="ZAPATOS">
</g>
<g id="PIERNAS">
</g>
<g id="ENDOSCOPIO">
</g>
<g id="BASE_RELOJ">
</g>
<g id="FONDO_BLANCO_RELOJ">
</g>
<g id="HORA">
</g>
<g id="CIRCUFERENCIA">
</g>
<g id="LARGA">
</g>
<g id="CORTA">
</g>
<g id="MANOS">
</g>
<g id="PELO">
</g>
<g id="PIEL_PRINCIPAL">
</g>
<g id="PIEL_SECUNDARIA">
</g>
<g id="CEJAS">
</g>
<g id="OJOS">
</g>
<g id="BOCA">
</g>
<g id="BARBA">
</g>
<g id="OREJAS">
</g>
</svg>
