<?xml version="1.0" encoding="UTF-8"?>
<svg id="Capa_1" data-name="Capa 1" xmlns="http://www.w3.org/2000/svg" viewBox="0 0 90.53 235.99">
  <defs>
    <style>
      .cls-1 {
        fill: #fff;
      }

      .cls-2 {
        fill: #06213a;
      }
    </style>
  </defs>
  <path class="cls-2" d="M64.62,161.86V30.31c0-10.69-8.67-19.36-19.36-19.36s-19.36,8.67-19.36,19.36v131.55c-9.17,6.21-15.2,16.72-15.2,28.63,0,19.08,15.47,34.56,34.56,34.56s34.56-15.47,34.56-34.56c0-11.91-6.03-22.41-15.2-28.63Z"/>
  <g>
    <path class="cls-1" d="M13.82,190.48c0,17.02,13.84,30.86,30.86,30.86s30.86-13.84,30.86-30.86c0-6.36-1.95-12.44-5.46-17.53H19.28c-3.51,5.08-5.46,11.17-5.46,17.53Z"/>
    <path class="cls-2" d="M45.26,222.08c-17.42,0-31.6-14.17-31.6-31.6,0-6.44,1.93-12.65,5.59-17.95l.22-.32h51.57l.22.32c3.66,5.3,5.59,11.51,5.59,17.95,0,17.42-14.17,31.6-31.6,31.6ZM20.26,173.7c-3.35,4.98-5.11,10.78-5.11,16.79,0,16.61,13.51,30.12,30.12,30.12s30.12-13.51,30.12-30.12c0-6.01-1.77-11.81-5.11-16.79H20.26Z"/>
  </g>
  <g>
    <path class="cls-1" d="M60.34,30.31c0-8.64-7.03-15.66-15.66-15.66s-15.66,7.03-15.66,15.66v17.02h31.32v-17.02Z"/>
    <path class="cls-2" d="M61.67,48.07H28.86v-17.76c0-9.04,7.36-16.4,16.4-16.4s16.4,7.36,16.4,16.4v17.76ZM30.34,46.59h29.85v-16.28c0-8.23-6.69-14.92-14.92-14.92s-14.92,6.69-14.92,14.92v16.28Z"/>
  </g>
  <g>
    <rect class="cls-1" x="29.02" y="47.33" width="31.32" height="31.41"/>
    <path class="cls-2" d="M61.67,79.47H28.86v-32.89h32.8v32.89ZM30.34,78h29.85v-29.93h-29.85v29.93Z"/>
  </g>
  <g>
    <path class="cls-1" d="M61.97,164.92l-1.62-1.1v-22.27h-31.32v22.27l-1.62,1.1c-3.23,2.19-5.96,4.93-8.11,8.04h50.79c-2.15-3.11-4.88-5.85-8.11-8.04Z"/>
    <path class="cls-2" d="M72.07,173.7H18.46l.8-1.16c2.24-3.25,5.04-6.02,8.31-8.23l1.3-.88v-22.62h32.8v22.62l1.3.88c3.27,2.22,6.07,4.99,8.31,8.23l.8,1.16ZM21.32,172.22h47.9c-1.98-2.6-4.36-4.84-7.08-6.69l-1.95-1.32v-21.92h-29.85v21.92l-1.95,1.32c-2.72,1.84-5.1,4.09-7.08,6.69Z"/>
  </g>
  <g>
    <rect class="cls-1" x="29.02" y="110.14" width="31.32" height="31.41"/>
    <path class="cls-2" d="M61.67,142.29H28.86v-32.89h32.8v32.89ZM30.34,140.81h29.85v-29.93h-29.85v29.93Z"/>
  </g>
  <g>
    <rect class="cls-1" x="29.02" y="78.74" width="31.32" height="31.41"/>
    <path class="cls-2" d="M61.67,110.88H28.86v-32.89h32.8v32.89ZM30.34,109.4h29.85v-29.93h-29.85v29.93Z"/>
  </g>
</svg>